<svg xmlns="http://www.w3.org/2000/svg" width="18.293" height="18.292" viewBox="0 0 18.293 18.292">
  <g id="Group_752" data-name="Group 752" transform="translate(-3811 -1297)">
    <g id="Group_750" data-name="Group 750" transform="translate(3813.755 1303.515)">
      <path id="Path_785" data-name="Path 785" d="M3826.13,1317.019l-2.631.752.752-2.631,5.639-5.639,1.88,1.88Z" transform="translate(-3816.733 -1306.493)" fill="rgba(0,0,0,0)" stroke="#a5a5a5" stroke-linecap="round" stroke-linejoin="round" stroke-width="1"/>
      <line id="Line_157" data-name="Line 157" x2="1.88" y2="1.88" transform="translate(11.653 4.511)" fill="none" stroke="#a5a5a5" stroke-linecap="round" stroke-linejoin="round" stroke-width="1"/>
      <line id="Line_158" data-name="Line 158" x2="1.88" y2="1.88" transform="translate(7.517 8.646)" fill="none" stroke="#a5a5a5" stroke-linecap="round" stroke-linejoin="round" stroke-width="1"/>
      <line id="Line_159" data-name="Line 159" x2="3.007" transform="translate(4.135 1.504)" fill="none" stroke="#a5a5a5" stroke-linecap="round" stroke-linejoin="round" stroke-width="1"/>
      <line id="Line_160" data-name="Line 160" x2="3.007" transform="translate(4.135 4.511)" fill="none" stroke="#a5a5a5" stroke-linecap="round" stroke-linejoin="round" stroke-width="1"/>
      <path id="Path_786" data-name="Path 786" d="M3817.507,1305.5l-1.88,1.88-1.127-1.128" transform="translate(-3814.5 -1305.5)" fill="rgba(0,0,0,0)" stroke="#a5a5a5" stroke-linecap="round" stroke-linejoin="round" stroke-width="1"/>
      <path id="Path_787" data-name="Path 787" d="M3817.507,1309.515l-1.88,1.88-1.127-1.128" transform="translate(-3814.5 -1306.496)" fill="rgba(0,0,0,0)" stroke="#a5a5a5" stroke-linecap="round" stroke-linejoin="round" stroke-width="1"/>
    </g>
    <g id="Group_751" data-name="Group 751" transform="translate(3811.5 1297.5)">
      <path id="Path_788" data-name="Path 788" d="M3817.89,1313.288h-6.39V1297.5h8.269l3.76,3.759v5.639" transform="translate(-3811.5 -1297.5)" fill="rgba(0,0,0,0)" stroke="#a5a5a5" stroke-linecap="round" stroke-linejoin="round" stroke-width="1"/>
      <path id="Path_789" data-name="Path 789" d="M3822.5,1297.5v3.759h3.759" transform="translate(-3814.23 -1297.5)" fill="rgba(0,0,0,0)" stroke="#a5a5a5" stroke-linecap="round" stroke-linejoin="round" stroke-width="1"/>
    </g>
  </g>
</svg>
