<svg xmlns="http://www.w3.org/2000/svg" width="18.187" height="18.187" viewBox="0 0 18.187 18.187">
  <g id="Group_652" data-name="Group 652" transform="translate(-145 -865)">
    <path id="Path_732" data-name="Path 732" d="M160.261,875.214h2.426v-2.242H160.26a8.817,8.817,0,0,0-.749-2.183l1.716-1.715-2.114-2.114-1.716,1.716a8.765,8.765,0,0,0-2.182-.749V865.5h-2.242v2.427a8.771,8.771,0,0,0-2.183.749l-1.716-1.716-2.114,2.114,1.716,1.716a8.834,8.834,0,0,0-.75,2.183H145.5v2.242h2.426a8.834,8.834,0,0,0,.75,2.183l-1.716,1.716,2.114,2.113,1.716-1.717a8.792,8.792,0,0,0,2.183.752v2.426h2.242v-2.426a8.817,8.817,0,0,0,2.182-.75l1.717,1.716,2.113-2.113-1.716-1.716A8.834,8.834,0,0,0,160.261,875.214Z" fill="rgba(0,0,0,0)" stroke="#a5a5a5" stroke-linecap="round" stroke-linejoin="round" stroke-width="1"/>
    <circle id="Ellipse_270" data-name="Ellipse 270" cx="2.615" cy="2.615" r="2.615" transform="translate(151.478 871.478)" stroke-width="1" stroke="#a5a5a5" stroke-linecap="round" stroke-linejoin="round" fill="rgba(0,0,0,0)"/>
  </g>
</svg>
