<svg xmlns="http://www.w3.org/2000/svg" width="151.281" height="45.856" viewBox="0 0 151.281 45.856">
  <g id="Group_784" data-name="Group 784" transform="translate(-52.292 -21.18)">
    <g id="Group_768" data-name="Group 768" transform="translate(52.292 21.18)">
      <path id="Path_805" data-name="Path 805" d="M-517.458,1239.412h-9.129v-21.365h8.642c.082.752.158,1.457.241,2.219,5.323-4.013,8.9-4.03,12.141-.048.409-.3.822-.614,1.237-.92a8.993,8.993,0,0,1,8.248-1.624c2.109.634,3.964,1.933,4.034,4.285.17,5.764.056,11.536.056,17.417h-9.035c0-2.765,0-5.473,0-8.181,0-1.409.018-2.818-.014-4.226-.022-.989-.515-1.875-1.521-1.731a3.149,3.149,0,0,0-1.909,1.41,4.465,4.465,0,0,0-.192,2.14c-.014,3.49-.006,6.979-.006,10.583h-9.191v-1.627q0-4.956,0-9.911c0-1.891-.486-2.635-1.723-2.675-1.255-.041-1.861.8-1.871,2.718C-517.472,1231.658-517.458,1235.442-517.458,1239.412Z" transform="translate(613.79 -1208.738)" fill="#fff"/>
      <path id="Path_806" data-name="Path 806" d="M-653.741,1218.154h8.613l.145,2.519a8.8,8.8,0,0,1,6.284-3.224,6.2,6.2,0,0,1,5.949,2.982,10.3,10.3,0,0,1,7.458-2.976c3.8.144,6.16,2.445,6.179,6.211.026,5.24.007,10.481.007,15.841h-9.079q0-2.312,0-4.61c0-2.38.01-4.76,0-7.14-.01-1.632-.563-2.432-1.65-2.457-1.122-.026-1.99.863-2.026,2.386-.078,3.349-.041,6.7-.051,10.053,0,.569,0,1.139,0,1.8h-9.027c-.027-.5-.078-1.009-.079-1.519-.007-3.352,0-6.7-.013-10.054a2.879,2.879,0,0,0-.228-1.549,2.4,2.4,0,0,0-1.521-1.039,2.01,2.01,0,0,0-1.533.968,5.888,5.888,0,0,0-.373,2.408c-.035,3.542-.015,7.084-.015,10.751h-9.034Z" transform="translate(703.877 -1208.88)" fill="#fff"/>
      <path id="Path_807" data-name="Path 807" d="M-802.151,1218.813c-2.741,0-5.406,0-8.071,0-.283,0-.566-.044-.921-.074-.046-.659-.088-1.26-.136-1.932a7.326,7.326,0,0,1-11.006.454c-4.481-4.372-4.614-13.448-.263-17.955a8.323,8.323,0,0,1,11.332-.759v-10.478h9.065Zm-8.17-10.469c-.113-2.878-1.686-4.574-3.939-4.144-1.814.346-2.912,2.485-2.522,4.911.324,2.021,1.9,3.376,3.728,2.98a3.472,3.472,0,0,0,1.923-1.319A8.774,8.774,0,0,0-810.321,1208.345Z" transform="translate(825.73 -1188.067)" fill="#fff"/>
      <path id="Path_808" data-name="Path 808" d="M-403.662,1242.066c.4.054.673.1.953.129a3.156,3.156,0,0,0,3.274-4.27c-2.088-5.58-4.213-11.147-6.319-16.72-.182-.483-.333-.978-.547-1.615,3,0,5.813-.033,8.62.041a1.478,1.478,0,0,1,1,.9c.856,2.713,1.628,5.452,2.332,7.862l2.774-8.74h9.526c-.941,2.27-1.839,4.453-2.75,6.631q-3.59,8.581-7.2,17.155c-.4.934-.95,1.8-1.36,2.728-1.173,2.66-3.374,3.573-6.084,3.685-5.141.211-5.338,0-4.631-5.012C-403.942,1243.938-403.806,1243.042-403.662,1242.066Z" transform="translate(528.569 -1210.396)" fill="#fff"/>
      <path id="Path_809" data-name="Path 809" d="M-715.15,1219.869c-.29,5.452-.529,10.81-.909,16.157a4.6,4.6,0,0,1-1.191,2.429c-3.64,4.184-12.721,4.879-17.044,1.4a7.872,7.872,0,0,1-3.317-6.041c-.029-.872-.146-1.743-.15-2.615-.017-3.733-.007-7.466-.007-11.3h9.234c0,1.693,0,3.376,0,5.058,0,2.235-.02,4.47.01,6.7a1.812,1.812,0,0,0,1.985,1.992,1.717,1.717,0,0,0,1.859-1.941q.01-5.1.014-10.2c0-.521,0-1.042,0-1.639Z" transform="translate(763.412 -1210.599)" fill="#fff"/>
      <path id="Path_810" data-name="Path 810" d="M-335.157,1263.15a4.822,4.822,0,0,1,4.819,4.933,4.821,4.821,0,0,1-4.8,4.952,4.9,4.9,0,0,1-4.9-5.019A4.8,4.8,0,0,1-335.157,1263.15Z" transform="translate(481.618 -1241.263)" fill="#fff"/>
    </g>
    <text id="Logo" transform="translate(131.08 64.037)" fill="#fff" font-size="13" font-family="Montserrat-Bold, Montserrat" font-weight="700"><tspan x="0" y="0">Logo</tspan></text>
  </g>
</svg>
